<svg width="32" height="32" viewBox="0 0 32 32" fill="none" xmlns="http://www.w3.org/2000/svg">
<path d="M22 0H10C4.47715 0 0 4.47715 0 10V22C0 27.5228 4.47715 32 10 32H22C27.5228 32 32 27.5228 32 22V10C32 4.47715 27.5228 0 22 0Z" fill="#7179DA"/>
<path d="M0 10C0 4.47715 4.47715 0 10 0H16V32H10C4.47715 32 0 27.5228 0 22V10Z" fill="#F0CC66"/>
<path d="M18.9679 8.68539C18.9677 8.68555 18.9675 8.6856 18.9673 8.68551C18.896 8.65675 18.8138 8.64001 18.7273 8.64001C18.4519 8.64001 18.2159 8.80998 18.1188 9.05129L18.1172 9.05549L12.7376 22.7253C12.7082 22.7971 12.6909 22.8805 12.6909 22.9681C12.6909 23.3301 12.9841 23.6239 13.3466 23.6239C13.6236 23.6239 13.8607 23.4518 13.9567 23.2089L13.9583 23.2047L19.339 9.53601C19.3679 9.46519 19.3841 9.38283 19.3841 9.29628C19.3841 9.02034 19.2136 8.78375 18.9723 8.6867L18.9685 8.68526C18.9683 8.68518 18.968 8.68523 18.9679 8.68539V8.68539ZM12.7921 19.3233V19.3233C10.9698 17.5013 10.8722 14.5784 12.5688 12.6388L12.8215 12.3499C12.9222 12.235 12.9836 12.0839 12.9836 11.9182C12.9836 11.5562 12.6898 11.2624 12.3279 11.2624C12.1317 11.2624 11.9554 11.349 11.8353 11.4854L11.8348 11.4859L8.16262 15.6832C8.0619 15.798 8 15.9491 8 16.1149C8 16.2959 8.07344 16.4601 8.192 16.5786L11.8641 20.2513C11.9827 20.3698 12.1469 20.4433 12.3279 20.4433C12.6904 20.4433 12.9841 20.1495 12.9841 19.787C12.9841 19.6055 12.9107 19.4418 12.7916 19.3228L12.7921 19.3233ZM23.8375 15.6837C23.8379 15.6837 23.8381 15.6833 23.8378 15.683L20.1663 11.487C20.0456 11.349 19.8689 11.263 19.6727 11.263C19.3102 11.263 19.0164 11.5567 19.0164 11.9192C19.0164 12.085 19.0778 12.2366 19.179 12.352L19.1785 12.3515L19.431 12.64C21.1279 14.5794 21.0304 17.5024 19.2079 19.3243V19.3243C19.0893 19.4429 19.0159 19.6071 19.0159 19.7881C19.0159 20.1506 19.3096 20.4443 19.6721 20.4443C19.8531 20.4443 20.0173 20.3709 20.1359 20.2523L23.808 16.5797C23.9266 16.4611 24 16.2969 24 16.1159C24 15.9502 23.9386 15.7986 23.8369 15.6832L23.8373 15.6836C23.8373 15.6836 23.8374 15.6837 23.8375 15.6837V15.6837Z" fill="#121826"/>
</svg>
